<svg width="512" height="512" viewBox="0 0 512 512" fill="none" xmlns="http://www.w3.org/2000/svg">
<g clip-path="url(#clip0)">
<path d="M451.798 43.963C291.242 -53.906 41.288 35.352 12.204 105.912C-26.704 200.305 38.782 216.44 50.947 293.786C60.708 355.847 -0.234993 415.281 34.553 470.068C72.435 529.731 198.018 514.749 245.751 486.515C333.127 434.833 289.06 374.503 330.435 299.216C369.843 227.509 446.679 256.591 491.396 199.226C533.896 144.705 505.707 76.824 451.798 43.963V43.963Z" fill="url(#paint0_linear)"/>
<path opacity="0.1" d="M350.232 500.339H161.768C145.2 500.339 131.768 486.907 131.768 470.339V89.6611C131.768 73.0931 145.199 59.6611 161.768 59.6611H350.232C366.801 59.6611 380.232 73.0931 380.232 89.6611V470.339C380.232 486.908 366.801 500.339 350.232 500.339Z" fill="#1A5CFF"/>
<path d="M350.232 476.339H161.768C145.2 476.339 131.768 462.907 131.768 446.339V65.6611C131.768 49.0921 145.199 35.6611 161.768 35.6611H350.232C366.801 35.6611 380.232 49.0921 380.232 65.6611V446.339C380.232 462.908 366.801 476.339 350.232 476.339Z" fill="#1A63FF" fill-opacity="0.55"/>
<path d="M131.77 78.5701H380.23V433.43H131.77V78.5701Z" fill="white"/>
<path d="M380.23 78.5701V246.33H342.63C337.13 246.33 331.76 248.27 327.7 251.98C318.24 260.63 305.64 265.91 291.81 265.91C277.98 265.91 265.38 260.63 255.92 251.98C251.86 248.27 246.49 246.33 241 246.33H131.77V78.5701H380.23Z" fill="#1A63FF" fill-opacity="0.55"/>
<path d="M222.56 246.33H131.77V207.08C139.6 204.1 148.09 202.47 156.96 202.47C186.56 202.47 211.92 220.58 222.56 246.33V246.33Z" fill="white"/>
<path d="M291.81 270.91C277.239 270.91 263.294 265.498 252.546 255.67C249.484 252.872 245.383 251.33 241 251.33H131.77C129.009 251.33 126.77 249.091 126.77 246.33C126.77 243.569 129.009 241.33 131.77 241.33H241C247.885 241.33 254.382 243.801 259.293 248.289C268.194 256.428 279.741 260.91 291.81 260.91C303.878 260.91 315.426 256.428 324.327 248.29C329.238 243.801 335.738 241.33 342.631 241.33H380.232C382.994 241.33 385.232 243.569 385.232 246.33C385.232 249.091 382.994 251.33 380.232 251.33H342.63C338.24 251.33 334.136 252.872 331.073 255.671C320.326 265.498 306.382 270.91 291.81 270.91Z" fill="#1A5CFF"/>
<path d="M380.23 91.5531V78.5701H131.77V193.148C131.77 164.982 154.603 142.148 182.77 142.148H329.635C357.578 142.148 380.23 119.496 380.23 91.5531Z" fill="white"/>
<path d="M350.232 481.339H161.768C142.469 481.339 126.768 465.638 126.768 446.339V65.6611C126.768 46.3621 142.469 30.6611 161.768 30.6611H350.232C369.531 30.6611 385.232 46.3621 385.232 65.6611V446.339C385.232 465.638 369.531 481.339 350.232 481.339ZM161.768 40.6611C147.983 40.6611 136.768 51.8761 136.768 65.6611V446.339C136.768 460.124 147.983 471.339 161.768 471.339H350.232C364.017 471.339 375.232 460.124 375.232 446.339V65.6611C375.232 51.8761 364.017 40.6611 350.232 40.6611H161.768Z" fill="#1A5CFF"/>
<path d="M273.483 63.0312H238.517C235.756 63.0312 233.517 60.7922 233.517 58.0312C233.517 55.2703 235.756 53.0312 238.517 53.0312H273.483C276.244 53.0312 278.483 55.2703 278.483 58.0312C278.483 60.7933 276.244 63.0312 273.483 63.0312Z" fill="#1A5CFF"/>
<path d="M296.813 63.0321C299.576 63.0321 301.815 60.7926 301.815 58.0301C301.815 55.2675 299.576 53.0281 296.813 53.0281C294.05 53.0281 291.811 55.2675 291.811 58.0301C291.811 60.7926 294.05 63.0321 296.813 63.0321Z" fill="#1A5CFF"/>
<path d="M350.303 213.811L313.613 177.121C312.675 176.182 311.404 175.656 310.078 175.656C308.752 175.656 307.479 176.183 306.542 177.121L285.384 198.284L275.718 188.618C273.767 186.667 270.599 186.666 268.648 188.619L243.324 213.943C241.371 215.895 241.371 219.061 243.324 221.013C245.275 222.966 248.443 222.966 250.394 221.013L272.183 199.225L293.895 220.935C294.871 221.911 296.151 222.4 297.43 222.4C298.709 222.4 299.99 221.912 300.965 220.935C302.918 218.983 302.918 215.817 300.965 213.865L292.455 205.355L310.078 187.727L343.233 220.881C344.209 221.858 345.489 222.346 346.768 222.346C348.047 222.346 349.328 221.858 350.303 220.881C352.256 218.929 352.256 215.763 350.303 213.811V213.811Z" fill="#1A5CFF"/>
<path d="M327.84 323.586H184.16C181.399 323.586 179.16 325.825 179.16 328.586C179.16 331.347 181.399 333.586 184.16 333.586H327.84C330.601 333.586 332.84 331.347 332.84 328.586C332.84 325.824 330.602 323.586 327.84 323.586Z" fill="#1A5CFF"/>
<path d="M299.34 289.517H212.66C209.899 289.517 207.66 291.756 207.66 294.517C207.66 297.278 209.899 299.517 212.66 299.517H299.341C302.102 299.517 304.341 297.278 304.341 294.517C304.341 291.756 302.102 289.517 299.34 289.517Z" fill="#1A5CFF"/>
<path d="M196.825 96.0752H170.144C167.383 96.0752 165.144 98.3142 165.144 101.075C165.144 103.836 167.383 106.075 170.144 106.075H196.825C199.586 106.075 201.825 103.836 201.825 101.075C201.825 98.3142 199.586 96.0752 196.825 96.0752Z" fill="#1A5CFF"/>
<path d="M178.825 159.145H170.144C167.383 159.145 165.144 161.384 165.144 164.145C165.144 166.906 167.383 169.145 170.144 169.145H178.825C181.586 169.145 183.825 166.906 183.825 164.145C183.825 161.384 181.586 159.145 178.825 159.145Z" fill="#1A5CFF"/>
<path d="M226.825 115.503H170.144C167.383 115.503 165.144 117.742 165.144 120.503C165.144 123.264 167.383 125.503 170.144 125.503H226.825C229.586 125.503 231.825 123.264 231.825 120.503C231.825 117.742 229.586 115.503 226.825 115.503Z" fill="#1A5CFF"/>
<path d="M327.84 362.441H184.16C181.399 362.441 179.16 364.68 179.16 367.441C179.16 370.202 181.399 372.441 184.16 372.441H327.84C330.601 372.441 332.84 370.202 332.84 367.441C332.84 364.68 330.602 362.441 327.84 362.441Z" fill="#1A5CFF"/>
<path d="M327.84 343.013H184.16C181.399 343.013 179.16 345.252 179.16 348.013C179.16 350.774 181.399 353.013 184.16 353.013H327.84C330.601 353.013 332.84 350.774 332.84 348.013C332.84 345.252 330.602 343.013 327.84 343.013Z" fill="#1A5CFF"/>
<path d="M204.833 405.087C204.833 407.849 202.594 410.089 199.831 410.089C197.068 410.089 194.829 407.85 194.829 405.087C194.829 402.325 197.068 400.085 199.831 400.085C202.594 400.085 204.833 402.325 204.833 405.087Z" fill="#1A5CFF"/>
<path d="M232.917 405.087C232.917 407.849 230.678 410.089 227.915 410.089C225.153 410.089 222.913 407.85 222.913 405.087C222.913 402.325 225.152 400.085 227.915 400.085C230.678 400.085 232.917 402.325 232.917 405.087Z" fill="#1A5CFF"/>
<path d="M261.002 405.087C261.002 407.849 258.763 410.089 256 410.089C253.238 410.089 250.998 407.85 250.998 405.087C250.998 402.325 253.237 400.085 256 400.085C258.762 400.085 261.002 402.325 261.002 405.087Z" fill="#1A5CFF"/>
<path d="M289.086 405.087C289.086 407.849 286.847 410.089 284.084 410.089C281.322 410.089 279.082 407.85 279.082 405.087C279.082 402.325 281.321 400.085 284.084 400.085C286.847 400.085 289.086 402.325 289.086 405.087Z" fill="#1A5CFF"/>
<path d="M317.17 405.087C317.17 407.849 314.931 410.089 312.168 410.089C309.406 410.089 307.166 407.85 307.166 405.087C307.166 402.325 309.405 400.085 312.168 400.085C314.931 400.085 317.17 402.325 317.17 405.087Z" fill="#1A5CFF"/>
<path d="M185.928 222.179H180.596C174.088 222.179 168.793 216.884 168.793 210.376V193.92C168.793 187.412 174.088 182.117 180.596 182.117H185.928C192.436 182.117 197.731 187.412 197.731 193.92V210.376C197.731 216.885 192.436 222.179 185.928 222.179ZM180.596 192.117C179.602 192.117 178.793 192.926 178.793 193.92V210.376C178.793 211.37 179.602 212.179 180.596 212.179H185.928C186.922 212.179 187.731 211.37 187.731 210.376V193.92C187.731 192.926 186.922 192.117 185.928 192.117H180.596Z" fill="#1A5CFF"/>
<path d="M214.744 222.179C211.982 222.179 209.744 219.94 209.744 217.179V192.117H209.3C206.538 192.117 204.3 189.878 204.3 187.117C204.3 184.356 206.538 182.117 209.3 182.117H214.744C217.506 182.117 219.744 184.356 219.744 187.117V217.179C219.744 219.941 217.506 222.179 214.744 222.179Z" fill="#1A5CFF"/>
<path d="M424.243 294.292C416.363 294.292 409.952 287.881 409.952 280C409.952 272.119 416.363 265.708 424.243 265.708C432.124 265.708 438.535 272.119 438.535 280C438.535 287.881 432.124 294.292 424.243 294.292ZM424.243 275.709C421.877 275.709 419.952 277.634 419.952 280.001C419.952 282.368 421.877 284.293 424.243 284.293C426.609 284.293 428.535 282.368 428.535 280.001C428.535 277.634 426.609 275.709 424.243 275.709Z" fill="#1A63FF" fill-opacity="0.55"/>
<path d="M444.535 345.944C441.773 345.944 439.535 343.705 439.535 340.944C439.535 337.635 436.844 334.944 433.535 334.944C430.773 334.944 428.535 332.705 428.535 329.944C428.535 327.183 430.773 324.944 433.535 324.944C436.844 324.944 439.535 322.253 439.535 318.944C439.535 316.183 441.773 313.944 444.535 313.944C447.297 313.944 449.535 316.183 449.535 318.944C449.535 322.253 452.226 324.944 455.535 324.944C458.297 324.944 460.535 327.183 460.535 329.944C460.535 332.705 458.297 334.944 455.535 334.944C452.226 334.944 449.535 337.635 449.535 340.944C449.535 343.706 447.297 345.944 444.535 345.944Z" fill="#1A63FF" fill-opacity="0.55"/>
<path d="M88.5871 162.794C85.8261 162.794 83.5871 160.555 83.5871 157.794C83.5871 154.485 80.8951 151.794 77.5861 151.794C74.8251 151.794 72.5861 149.555 72.5861 146.794C72.5861 144.033 74.8251 141.794 77.5861 141.794C80.8951 141.794 83.5871 139.102 83.5871 135.793C83.5871 133.032 85.8261 130.793 88.5871 130.793C91.3481 130.793 93.5871 133.032 93.5871 135.793C93.5871 139.102 96.2781 141.794 99.5861 141.794C102.347 141.794 104.586 144.033 104.586 146.794C104.586 149.555 102.347 151.794 99.5861 151.794C96.2781 151.794 93.5871 154.485 93.5871 157.794C93.5871 160.556 91.3491 162.794 88.5871 162.794Z" fill="#1A63FF" fill-opacity="0.55"/>
<path d="M424.243 208.118C421.481 208.118 419.243 205.879 419.243 203.118C419.243 199.809 416.552 197.118 413.243 197.118C410.481 197.118 408.243 194.879 408.243 192.118C408.243 189.357 410.481 187.118 413.243 187.118C416.552 187.118 419.243 184.426 419.243 181.118C419.243 178.357 421.481 176.118 424.243 176.118C427.005 176.118 429.243 178.357 429.243 181.118C429.243 184.427 431.934 187.118 435.243 187.118C438.005 187.118 440.243 189.357 440.243 192.118C440.243 194.879 438.005 197.118 435.243 197.118C431.934 197.118 429.243 199.809 429.243 203.118C429.243 205.879 427.005 208.118 424.243 208.118Z" fill="#1A63FF" fill-opacity="0.55"/>
<path d="M66.587 208.118C63.826 208.118 61.587 205.879 61.587 203.118C61.587 199.809 58.895 197.118 55.587 197.118C52.826 197.118 50.587 194.879 50.587 192.118C50.587 189.357 52.826 187.118 55.587 187.118C58.896 187.118 61.587 184.426 61.587 181.118C61.587 178.357 63.826 176.118 66.587 176.118C69.348 176.118 71.587 178.357 71.587 181.118C71.587 184.427 74.278 187.118 77.586 187.118C80.347 187.118 82.586 189.357 82.586 192.118C82.586 194.879 80.347 197.118 77.586 197.118C74.278 197.118 71.587 199.809 71.587 203.118C71.587 205.879 69.349 208.118 66.587 208.118Z" fill="#1A63FF" fill-opacity="0.55"/>
</g>
<defs>
<linearGradient id="paint0_linear" x1="-21.409" y1="373.272" x2="490.399" y2="77.7791" gradientUnits="userSpaceOnUse">
<stop stop-color="#D2DEFF" stop-opacity="0"/>
<stop offset="1" stop-color="#B7C5FF"/>
</linearGradient>
<clipPath id="clip0">
<rect width="512" height="512" fill="white"/>
</clipPath>
</defs>
</svg>
