<svg width="512" height="512" viewBox="0 0 512 512" fill="none" xmlns="http://www.w3.org/2000/svg">
<path d="M505.626 289.418C493.8 254.808 467.488 229.258 435.774 217.216C419.344 210.977 408.428 195.36 408.187 177.787C408.182 177.403 408.175 177.018 408.166 176.633C406.659 112.051 352.678 60.303 288.089 61.412C249.995 62.066 216.301 80.767 195.184 109.332C176.999 133.931 148.694 149.297 118.104 149.281C117.206 149.281 116.307 149.29 115.404 149.31C53.487 150.663 0.836986 203.787 0.0109856 265.714C-0.868014 331.646 52.314 385.368 118.043 385.368C168.99 385.368 212.392 353.091 228.929 307.871C233.256 296.039 246.081 289.697 258.212 293.099C258.363 293.141 258.515 293.184 258.667 293.226C269.766 296.29 277.125 306.866 276.217 318.345C275 333.728 276.798 349.6 282.015 365.141C302.536 426.276 369.203 459.826 430.508 439.821C493.219 419.356 526.887 351.636 505.626 289.418Z" fill="url(#paint0_linear)"/>
<path opacity="0.1" d="M441 104.019H335C334.998 60.39 299.63 25.022 256 25.022C212.37 25.022 177.002 60.39 177 104.019H71C62.72 104.019 56 110.739 56 119.019V373.269C56 381.549 62.72 388.269 71 388.269H441C449.28 388.269 456 381.549 456 373.269V119.019C456 110.739 449.28 104.019 441 104.019Z" fill="#1A5CFF"/>
<path d="M312.71 481.977H199.289L221.971 392.073H290.028L312.71 481.977Z" fill="white"/>
<path d="M456 140.018V394.268C456 402.548 449.28 409.268 441 409.268H71C62.72 409.268 56 402.548 56 394.268V140.018C56 131.738 62.72 125.018 71 125.018H441C449.28 125.018 456 131.738 456 140.018V140.018Z" fill="white"/>
<path d="M456 140.018V173.198H56V140.018C56 131.738 62.72 125.018 71 125.018H441C449.28 125.018 456 131.738 456 140.018Z" fill="white"/>
<path d="M335 142.058C335 153.118 332.73 163.648 328.62 173.198H183.38C179.27 163.648 177 153.118 177 142.058C177 136.208 177.64 130.498 178.85 125.018H333.16C334.36 130.498 335 136.208 335 142.058V142.058Z" fill="#1A63FF" fill-opacity="0.55"/>
<path d="M456 178.194H320C317.239 178.194 315 175.955 315 173.194C315 170.433 317.239 168.194 320 168.194H456C458.761 168.194 461 170.433 461 173.194C461 175.955 458.761 178.194 456 178.194Z" fill="#1A5CFF"/>
<path d="M191.333 178.194H56C53.239 178.194 51 175.955 51 173.194C51 170.433 53.239 168.194 56 168.194H191.333C194.094 168.194 196.333 170.433 196.333 173.194C196.333 175.955 194.095 178.194 191.333 178.194Z" fill="#1A5CFF"/>
<path d="M306.179 461.107C303.943 461.107 301.907 459.596 301.335 457.329L289.967 412.269C289.292 409.591 290.914 406.873 293.592 406.198C296.267 405.521 298.988 407.146 299.663 409.823L311.031 454.883C311.706 457.561 310.084 460.279 307.406 460.954C306.996 461.058 306.583 461.107 306.179 461.107V461.107Z" fill="#1A5CFF"/>
<path d="M199.293 486.978C198.888 486.978 198.477 486.929 198.066 486.825C195.388 486.149 193.766 483.431 194.441 480.754L212.337 409.822C213.012 407.144 215.731 405.522 218.408 406.197C221.086 406.873 222.708 409.591 222.033 412.268L204.137 483.201C203.565 485.468 201.529 486.978 199.293 486.978V486.978Z" fill="#1A5CFF"/>
<path d="M56 358.881V394.271C56 402.555 62.716 409.271 71 409.271H441C449.284 409.271 456 402.555 456 394.271V358.881H56Z" fill="white"/>
<path d="M455.447 363.881H56C53.239 363.881 51 361.642 51 358.881C51 356.12 53.239 353.881 56 353.881H455.447C458.208 353.881 460.447 356.12 460.447 358.881C460.447 361.642 458.208 363.881 455.447 363.881Z" fill="#1A5CFF"/>
<path d="M331.934 486.972H180.066C177.305 486.972 175.066 484.733 175.066 481.972C175.066 479.211 177.305 476.972 180.066 476.972H331.934C334.695 476.972 336.934 479.211 336.934 481.972C336.934 484.733 334.695 486.972 331.934 486.972Z" fill="#1A5CFF"/>
<path d="M94.082 154.181C91.321 154.181 89.082 151.942 89.082 149.181V149.036C89.082 146.275 91.321 144.036 94.082 144.036C96.843 144.036 99.082 146.275 99.082 149.036V149.181C99.082 151.942 96.843 154.181 94.082 154.181Z" fill="#1A5CFF"/>
<path d="M113.407 154.181C110.646 154.181 108.407 151.942 108.407 149.181V149.036C108.407 146.275 110.646 144.036 113.407 144.036C116.168 144.036 118.407 146.275 118.407 149.036V149.181C118.407 151.942 116.168 154.181 113.407 154.181Z" fill="#1A5CFF"/>
<path d="M132.731 154.181C129.97 154.181 127.731 151.942 127.731 149.181V149.036C127.731 146.275 129.97 144.036 132.731 144.036C135.492 144.036 137.731 146.275 137.731 149.036V149.181C137.731 151.942 135.493 154.181 132.731 154.181Z" fill="#1A5CFF"/>
<path d="M441 414.27H71C59.972 414.27 51 405.298 51 394.27V140.022C51 128.994 59.972 120.022 71 120.022H174.5C177.261 120.022 179.5 122.261 179.5 125.022C179.5 127.783 177.261 130.022 174.5 130.022H71C65.486 130.022 61 134.508 61 140.022V394.27C61 399.784 65.486 404.27 71 404.27H441C446.514 404.27 451 399.784 451 394.27V140.022C451 134.508 446.514 130.022 441 130.022H362.541C359.78 130.022 357.541 127.783 357.541 125.022C357.541 122.261 359.78 120.022 362.541 120.022H441C452.028 120.022 461 128.994 461 140.022V394.27C461 405.298 452.028 414.27 441 414.27Z" fill="#1A5CFF"/>
<path d="M203.667 297.595H122C119.239 297.595 117 295.356 117 292.595C117 289.834 119.239 287.595 122 287.595H198.667V258.975C198.667 256.214 200.906 253.975 203.667 253.975H249.618C252.379 253.975 254.618 256.214 254.618 258.975C254.618 261.736 252.379 263.975 249.618 263.975H208.667V292.595C208.667 295.356 206.428 297.595 203.667 297.595Z" fill="#1A5CFF"/>
<path d="M421 297.595H239.063C236.302 297.595 234.063 295.356 234.063 292.595C234.063 289.834 236.302 287.595 239.063 287.595H416V207.802C416 205.041 418.239 202.802 421 202.802C423.761 202.802 426 205.041 426 207.802V292.595C426 295.356 423.761 297.595 421 297.595Z" fill="#1A5CFF"/>
<path d="M306 363.881C303.239 363.881 301 361.642 301 358.881V331.513H203.667C200.906 331.513 198.667 329.274 198.667 326.513V285.498C198.667 282.737 200.906 280.498 203.667 280.498C206.428 280.498 208.667 282.737 208.667 285.498V321.513H306C308.761 321.513 311 323.752 311 326.513V358.881C311 361.643 308.761 363.881 306 363.881Z" fill="#1A5CFF"/>
<path d="M455.447 331.514H340C337.239 331.514 335 329.275 335 326.514C335 323.753 337.239 321.514 340 321.514H455.447C458.208 321.514 460.447 323.753 460.447 326.514C460.447 329.275 458.208 331.514 455.447 331.514Z" fill="#1A5CFF"/>
<path d="M171 333.19H88.667C85.906 333.19 83.667 330.951 83.667 328.19V279.737C83.667 276.976 85.906 274.737 88.667 274.737C91.428 274.737 93.667 276.976 93.667 279.737V323.19H171C173.761 323.19 176 325.429 176 328.19C176 330.951 173.761 333.19 171 333.19V333.19Z" fill="#1A5CFF"/>
<path d="M140.333 363.881C137.572 363.881 135.333 361.642 135.333 358.881V328.19C135.333 325.429 137.572 323.19 140.333 323.19C143.094 323.19 145.333 325.429 145.333 328.19V358.881C145.333 361.643 143.095 363.881 140.333 363.881Z" fill="#1A5CFF"/>
<path d="M166.333 263.665H122C119.239 263.665 117 261.426 117 258.665V174.495C117 171.734 119.239 169.495 122 169.495C124.761 169.495 127 171.734 127 174.495V253.665H166.333C169.094 253.665 171.333 255.904 171.333 258.665C171.333 261.426 169.095 263.665 166.333 263.665Z" fill="#1A5CFF"/>
<path d="M88.667 252.458H56C53.239 252.458 51 250.219 51 247.458C51 244.697 53.239 242.458 56 242.458H83.667V213.333C83.667 210.572 85.906 208.333 88.667 208.333C91.428 208.333 93.667 210.572 93.667 213.333V247.458C93.667 250.219 91.428 252.458 88.667 252.458Z" fill="#1A5CFF"/>
<path d="M288 263.975C286.677 263.975 285.407 263.451 284.47 262.516C283.529 261.578 283 260.304 283 258.975V224.666C283 221.905 285.239 219.666 288 219.666H351.333C354.094 219.666 356.333 221.905 356.333 224.666C356.333 227.427 354.094 229.666 351.333 229.666H293V253.96L384 253.681V173.195C384 170.434 386.239 168.195 389 168.195C391.761 168.195 394 170.434 394 173.195V258.666C394 261.421 391.771 263.658 389.015 263.666L288.015 263.975C288.01 263.975 288.005 263.975 288 263.975V263.975Z" fill="#1A5CFF"/>
<path d="M288 229.665H159C156.239 229.665 154 227.426 154 224.665C154 221.904 156.239 219.665 159 219.665H288C290.761 219.665 293 221.904 293 224.665C293 227.426 290.761 229.665 288 229.665Z" fill="#1A5CFF"/>
<path d="M256 204.023C299.63 204.023 335 168.653 335 125.023C335 81.3925 299.63 46.0229 256 46.0229C212.37 46.0229 177 81.3925 177 125.023C177 168.653 212.37 204.023 256 204.023Z" fill="white"/>
<path d="M256 209.023C209.682 209.023 172 171.341 172 125.023C172 78.7049 209.682 41.0229 256 41.0229C302.318 41.0229 340 78.7049 340 125.023C340 171.34 302.318 209.023 256 209.023ZM256 51.0219C215.196 51.0219 182 84.218 182 125.022C182 165.826 215.196 199.022 256 199.022C296.804 199.022 330 165.826 330 125.022C330 84.218 296.804 51.0219 256 51.0219Z" fill="#1A5CFF"/>
<path d="M297.373 166.45C320.244 143.578 320.244 106.496 297.373 83.6239C274.501 60.752 237.418 60.752 214.546 83.6239C191.674 106.496 191.674 143.578 214.546 166.45C237.418 189.322 274.501 189.322 297.373 166.45Z" fill="#1A63FF" fill-opacity="0.55"/>
<path d="M232.619 142.058C231.34 142.058 230.059 141.57 229.084 140.594L217.049 128.559C215.096 126.606 215.096 123.44 217.049 121.488L229.084 109.453C231.035 107.501 234.203 107.501 236.154 109.453C238.107 111.406 238.107 114.572 236.154 116.524L227.655 125.024L236.154 133.524C238.107 135.477 238.107 138.643 236.154 140.595C235.179 141.569 233.898 142.058 232.619 142.058Z" fill="#1A5CFF"/>
<path d="M279.381 142.058C278.102 142.058 276.821 141.57 275.846 140.594C273.893 138.641 273.893 135.475 275.846 133.523L284.345 125.023L275.846 116.523C273.893 114.57 273.893 111.404 275.846 109.452C277.797 107.5 280.965 107.5 282.916 109.452L294.951 121.487C296.904 123.44 296.904 126.606 294.951 128.558L282.916 140.593C281.94 141.569 280.66 142.058 279.381 142.058V142.058Z" fill="#1A5CFF"/>
<path d="M249.199 142.059C248.366 142.059 247.522 141.851 246.746 141.412C244.341 140.054 243.492 137.004 244.85 134.599L258.442 110.529C259.799 108.125 262.85 107.276 265.254 108.633C267.659 109.991 268.508 113.041 267.15 115.446L253.558 139.516C252.639 141.144 250.944 142.059 249.199 142.059V142.059Z" fill="#1A5CFF"/>
<path d="M374.533 472.13C373.207 472.13 371.935 471.603 370.997 470.666L359.973 459.642C359.035 458.704 358.509 457.433 358.509 456.106C358.509 454.779 359.036 453.508 359.973 452.57L370.997 441.547C372.951 439.595 376.116 439.596 378.068 441.547L389.091 452.57C391.044 454.523 391.044 457.689 389.091 459.641L378.068 470.665C377.131 471.603 375.859 472.13 374.533 472.13ZM370.58 456.106L374.533 460.059L378.486 456.106L374.533 452.153L370.58 456.106Z" fill="#1A63FF" fill-opacity="0.55"/>
<path d="M152.462 462.191C149.701 462.191 147.462 459.952 147.462 457.191C147.462 453.882 144.77 451.191 141.462 451.191C138.701 451.191 136.462 448.952 136.462 446.191C136.462 443.43 138.701 441.191 141.462 441.191C144.771 441.191 147.462 438.499 147.462 435.191C147.462 432.43 149.701 430.191 152.462 430.191C155.223 430.191 157.462 432.43 157.462 435.191C157.462 438.5 160.153 441.191 163.462 441.191C166.223 441.191 168.462 443.43 168.462 446.191C168.462 448.952 166.223 451.191 163.462 451.191C160.153 451.191 157.462 453.883 157.462 457.191C157.462 459.952 155.224 462.191 152.462 462.191Z" fill="#1A63FF" fill-opacity="0.55"/>
<path d="M357.342 76.896C354.581 76.896 352.342 74.657 352.342 71.896C352.342 68.587 349.651 65.896 346.342 65.896C343.581 65.896 341.342 63.657 341.342 60.896C341.342 58.135 343.581 55.896 346.342 55.896C349.651 55.896 352.342 53.204 352.342 49.896C352.342 47.135 354.581 44.896 357.342 44.896C360.103 44.896 362.342 47.135 362.342 49.896C362.342 53.205 365.034 55.896 368.342 55.896C371.103 55.896 373.342 58.135 373.342 60.896C373.342 63.657 371.103 65.896 368.342 65.896C365.033 65.896 362.342 68.588 362.342 71.896C362.342 74.658 360.104 76.896 357.342 76.896Z" fill="#1A63FF" fill-opacity="0.55"/>
<path d="M412 95.1299C409.239 95.1299 407 92.8909 407 90.1299C407 86.8209 404.308 84.1299 401 84.1299C398.239 84.1299 396 81.8909 396 79.1299C396 76.3689 398.239 74.1299 401 74.1299C404.309 74.1299 407 71.4379 407 68.1299C407 65.3689 409.239 63.1299 412 63.1299C414.761 63.1299 417 65.3689 417 68.1299C417 71.4389 419.691 74.1299 423 74.1299C425.761 74.1299 428 76.3689 428 79.1299C428 81.8909 425.761 84.1299 423 84.1299C419.691 84.1299 417 86.8219 417 90.1299C417 92.8909 414.762 95.1299 412 95.1299Z" fill="#1A63FF" fill-opacity="0.55"/>
<defs>
<linearGradient id="paint0_linear" x1="24.681" y1="135.68" x2="524.971" y2="380.41" gradientUnits="userSpaceOnUse">
<stop stop-color="#D2DEFF" stop-opacity="0"/>
<stop offset="1" stop-color="#B7C5FF"/>
</linearGradient>
</defs>
</svg>
