<svg id="Capa_1" enable-background="new 0 0 512 512" height="512" viewBox="0 0 512 512" width="512" xmlns="http://www.w3.org/2000/svg" xmlns:xlink="http://www.w3.org/1999/xlink"><linearGradient id="SVGID_1_" gradientUnits="userSpaceOnUse" x1="-14.194" x2="529.412" y1="197.173" y2="346.609"><stop offset="0" stop-color="#d2deff" stop-opacity="0"/><stop offset="1" stop-color="#b7c5ff"/></linearGradient><g><path d="m382.606 174.015c-.192-.001-.385-.002-.577-.002-32.034-.05-62.385-13.844-83.44-37.986-31.366-35.964-77.6-58.622-129.121-58.393-93.512.415-170.663 78.981-169.454 172.486 1.203 92.986 76.955 167.995 170.227 167.995 26.343 0 51.286-5.987 73.547-16.672 19.194-9.213 42.065-6.784 58.968 6.161 21.863 16.745 49.19 26.713 78.846 26.763 71.382.119 129.981-58.02 130.396-129.401.418-72.05-57.442-130.527-129.392-130.951z" fill="url(#SVGID_1_)"/><path d="m456 94.912v284.25c0 8.28-6.72 15-15 15h-370c-8.28 0-15-6.72-15-15v-284.25c0-8.28 6.72-15 15-15h370c8.28 0 15 6.72 15 15z" fill="#2626bc" opacity=".1"/><path d="m456 115.912v284.25c0 8.28-6.72 15-15 15h-370c-8.28 0-15-6.72-15-15v-284.25c0-8.28 6.72-15 15-15h370c8.28 0 15 6.72 15 15z" fill="#fff"/><path d="m92.436 149.084h327.127v108.163h-327.127z" fill="#6583fe"/><path d="m456 149.084v-33.171c0-8.284-6.716-15-15-15h-370c-8.284 0-15 6.716-15 15v33.171z" fill="#fff"/><path d="m175.463 280.317h-82.926c-2.057 0-3.724-1.667-3.724-3.724v-66.78c0-2.057 1.667-3.724 3.724-3.724h82.926c2.057 0 3.724 1.667 3.724 3.724v66.78c0 2.056-1.667 3.724-3.724 3.724z" fill="#fff"/><path d="m167.293 316.615h-66.586c-2.829 0-5.123-2.294-5.123-5.123s2.293-5.123 5.123-5.123h66.586c2.829 0 5.123 2.294 5.123 5.123s-2.294 5.123-5.123 5.123z" fill="#2626bc"/><path d="m297.463 280.317h-82.926c-2.057 0-3.724-1.667-3.724-3.724v-66.78c0-2.057 1.667-3.724 3.724-3.724h82.926c2.057 0 3.724 1.667 3.724 3.724v66.78c0 2.056-1.667 3.724-3.724 3.724z" fill="#fff"/><path d="m289.293 316.615h-66.586c-2.829 0-5.123-2.294-5.123-5.123s2.293-5.123 5.123-5.123h66.586c2.829 0 5.123 2.294 5.123 5.123s-2.294 5.123-5.123 5.123z" fill="#2626bc"/><path d="m419.463 280.317h-82.926c-2.057 0-3.724-1.667-3.724-3.724v-66.78c0-2.057 1.667-3.724 3.724-3.724h82.926c2.057 0 3.724 1.667 3.724 3.724v66.78c0 2.056-1.667 3.724-3.724 3.724z" fill="#fff"/><g fill="#2626bc"><path d="m411.293 316.615h-66.586c-2.829 0-5.123-2.294-5.123-5.123s2.293-5.123 5.123-5.123h66.586c2.829 0 5.123 2.294 5.123 5.123s-2.294 5.123-5.123 5.123z"/><path d="m419.463 201.088h-82.926c-4.811 0-8.725 3.914-8.725 8.725v66.779c0 4.811 3.914 8.725 8.725 8.725h82.926c4.811 0 8.725-3.914 8.725-8.725v-66.779c-.001-4.811-3.915-8.725-8.725-8.725zm-1.276 37.114h-49.521v-27.114h49.521zm-80.375-27.114h20.854v64.229h-20.854zm30.855 64.229v-27.114h49.521v27.114z"/><path d="m393.293 325.37h-30.586c-2.829 0-5.123 2.293-5.123 5.123 0 2.829 2.293 5.123 5.123 5.123h30.586c2.829 0 5.123-2.294 5.123-5.123-.001-2.83-2.294-5.123-5.123-5.123z"/></g><path d="m157 381.631h-46c-1.657 0-3-1.343-3-3v-16.667c0-1.657 1.343-3 3-3h46c1.657 0 3 1.343 3 3v16.667c0 1.657-1.343 3-3 3z" fill="#6583fe"/><path d="m280.057 381.631h-46c-1.657 0-3-1.343-3-3v-16.667c0-1.657 1.343-3 3-3h46c1.657 0 3 1.343 3 3v16.667c0 1.657-1.343 3-3 3z" fill="#6583fe"/><path d="m403.115 381.631h-46c-1.657 0-3-1.343-3-3v-16.667c0-1.657 1.343-3 3-3h46c1.657 0 3 1.343 3 3v16.667c0 1.657-1.343 3-3 3z" fill="#6583fe"/><path d="m257.345 384.647 31.29 84.203c1.317 3.544 6.18 3.922 8.028.624l17.785-31.727c.399-.713.988-1.301 1.701-1.701l31.727-17.785c3.298-1.849 2.92-6.711-.624-8.028l-84.203-31.29c-3.559-1.323-7.026 2.145-5.704 5.704z" fill="#fff"/><g fill="#2626bc"><path d="m89.082 124.925v.146c0 2.762 2.238 5 5 5s5-2.238 5-5v-.146c0-2.762-2.238-5-5-5s-5 2.238-5 5z"/><path d="m108.407 124.925v.146c0 2.762 2.238 5 5 5s5-2.238 5-5v-.146c0-2.762-2.238-5-5-5s-5 2.238-5 5z"/><path d="m127.731 124.925v.146c0 2.762 2.238 5 5 5s5-2.238 5-5v-.146c0-2.762-2.238-5-5-5s-5 2.238-5 5z"/><path d="m441 95.912h-370c-11.028 0-20 8.972-20 20v33.171c0 2.762 2.238 5 5 5h365.667c2.762 0 5-2.238 5-5s-2.238-5-5-5h-360.667v-28.171c0-5.514 4.486-10 10-10h370c5.514 0 10 4.486 10 10v284.248c0 5.514-4.486 10-10 10h-86.865c-1.042-2.095-2.833-3.756-5.142-4.613l-84.203-31.29c-3.502-1.304-7.318-.469-9.959 2.173-2.642 2.642-3.475 6.458-2.173 9.959l8.834 23.771h-190.492c-5.514 0-10-4.486-10-10v-223.536c0-2.762-2.238-5-5-5s-5 2.238-5 5v223.536c0 11.028 8.972 20 20 20h194.208l18.741 50.433c1.296 3.487 4.405 5.833 8.115 6.12.254.02.507.029.758.029 3.414 0 6.51-1.801 8.203-4.823l17.708-31.588 31.589-17.708c1.139-.638 2.092-1.484 2.853-2.463h87.825c11.028 0 20-8.972 20-20v-284.248c0-11.028-8.972-20-20-20zm-127.298 335.774c-1.517.851-2.767 2.102-3.615 3.615l-17.189 30.665-30.438-81.908 81.908 30.438z"/></g><path d="m245.073 468.646c-2.762 0-5-2.238-5-5 0-3.317-2.698-6.016-6.016-6.016-2.762 0-5-2.238-5-5s2.238-5 5-5c3.317 0 6.016-2.699 6.016-6.017 0-2.762 2.238-5 5-5s5 2.238 5 5c0 3.317 2.698 6.017 6.016 6.017 2.762 0 5 2.238 5 5s-2.238 5-5 5c-3.317 0-6.016 2.698-6.016 6.016 0 2.762-2.238 5-5 5z" fill="#6583fe"/><path d="m175.463 201.088h-82.926c-4.811 0-8.725 3.914-8.725 8.725v66.779c0 4.811 3.914 8.725 8.725 8.725h82.926c4.811 0 8.725-3.914 8.725-8.725v-66.779c-.001-4.811-3.915-8.725-8.725-8.725zm-1.276 10v16.619h-80.375v-16.619zm-80.375 26.619h54.683v37.609h-54.683zm64.683 37.61v-37.609h15.692v37.609z" fill="#2626bc"/><path d="m149.293 325.37h-30.586c-2.829 0-5.123 2.293-5.123 5.123 0 2.829 2.293 5.123 5.123 5.123h30.586c2.829 0 5.123-2.294 5.123-5.123-.001-2.83-2.294-5.123-5.123-5.123z" fill="#2626bc"/><path d="m245.588 65.004-10.995-10.995c-1.951-1.953-5.119-1.953-7.07 0l-10.995 10.995c-.938.938-1.465 2.209-1.465 3.535s.527 2.598 1.465 3.536l10.995 10.994c.977.976 2.256 1.464 3.535 1.464s2.559-.488 3.535-1.464l10.995-10.994c.938-.938 1.465-2.21 1.465-3.536s-.527-2.597-1.465-3.535zm-14.531 7.459-3.924-3.924 3.924-3.924 3.924 3.924z" fill="#6583fe"/><path d="m297.463 201.088h-82.926c-4.811 0-8.725 3.914-8.725 8.725v66.779c0 4.811 3.914 8.725 8.725 8.725h82.926c4.811 0 8.725-3.914 8.725-8.725v-66.779c-.001-4.811-3.915-8.725-8.725-8.725zm-1.276 38.619h-26.187v-28.619h26.188v28.619zm-36.187-28.619v28.619h-44.188v-28.619zm-44.188 38.619h22.188v25.609h-22.188zm32.188 25.61v-25.609h48.188v25.609z" fill="#2626bc"/><path d="m271.293 325.37h-30.586c-2.829 0-5.123 2.293-5.123 5.123 0 2.829 2.293 5.123 5.123 5.123h30.586c2.829 0 5.123-2.294 5.123-5.123-.001-2.83-2.294-5.123-5.123-5.123z" fill="#2626bc"/><path d="m183.43 46.274c-3.316 0-6.015-2.698-6.015-6.016 0-2.762-2.238-5-5-5s-5 2.238-5 5c0 3.317-2.699 6.016-6.017 6.016-2.762 0-5 2.238-5 5s2.238 5 5 5c3.317 0 6.017 2.698 6.017 6.016 0 2.762 2.238 5 5 5s5-2.238 5-5c0-3.317 2.698-6.016 6.015-6.016 2.762 0 5-2.238 5-5s-2.238-5-5-5z" fill="#6583fe"/><path d="m367.74 65.004-10.995-10.995c-1.951-1.953-5.119-1.953-7.07 0l-10.995 10.995c-.938.938-1.465 2.209-1.465 3.535s.527 2.598 1.465 3.536l10.995 10.994c.977.976 2.256 1.464 3.535 1.464s2.559-.488 3.535-1.464l10.995-10.994c.938-.938 1.465-2.21 1.465-3.536s-.526-2.597-1.465-3.535zm-14.53 7.459-3.924-3.924 3.924-3.924 3.924 3.924z" fill="#6583fe"/></g></svg>